<?xml version="1.0" encoding="UTF-8"?>
<svg xmlns="http://www.w3.org/2000/svg" xmlns:xlink="http://www.w3.org/1999/xlink" viewBox="0 0 30 30" width="30px" height="30px">
<g id="surface21734236">
<path style=" stroke:none;fill-rule:nonzero;fill:rgb(40.000001%,40.000001%,40.000001%);fill-opacity:1;" d="M 19.800781 17.398438 C 18.722656 17.398438 18 18.308594 18 19.800781 C 18 21.289062 18.535156 22.828125 19.800781 22.800781 C 21.132812 22.769531 21.613281 21.464844 21.601562 19.800781 C 21.589844 18.308594 20.875 17.398438 19.800781 17.398438 Z M 26.558594 10.238281 C 26.722656 9.433594 26.792969 6.578125 25.609375 3.601562 C 25.609375 3.601562 22.890625 3.898438 18.777344 6.71875 C 17.917969 6.480469 16.457031 6.359375 15 6.359375 C 13.542969 6.359375 12.085938 6.480469 11.21875 6.71875 C 7.109375 3.898438 4.394531 3.601562 4.394531 3.601562 C 3.207031 6.578125 3.265625 9.367188 3.441406 10.238281 C 2.050781 11.75 1.199219 13.566406 1.199219 16.046875 C 1.199219 26.824219 10.144531 26.996094 12.402344 26.996094 C 12.910156 26.996094 13.925781 26.996094 15 27 C 16.074219 26.996094 17.089844 26.996094 17.597656 26.996094 C 19.855469 26.996094 28.800781 26.824219 28.800781 16.046875 C 28.800781 13.566406 27.949219 11.75 26.558594 10.238281 Z M 15.085938 25.800781 L 15 25.800781 C 9.34375 25.800781 4.894531 24.996094 4.894531 19.496094 C 4.894531 18.179688 5.359375 16.960938 6.464844 15.945312 C 8.304688 14.253906 11.421875 15.148438 14.957031 15.148438 C 14.972656 15.148438 15.03125 15.148438 15.042969 15.148438 C 18.578125 15.148438 21.695312 14.253906 23.539062 15.945312 C 24.640625 16.960938 25.105469 18.179688 25.105469 19.496094 C 25.105469 24.996094 20.742188 25.800781 15.085938 25.800781 Z M 10.199219 17.398438 C 9.125 17.398438 8.398438 18.609375 8.398438 20.101562 C 8.398438 21.589844 9.125 22.800781 10.199219 22.800781 C 11.277344 22.800781 12 21.589844 12 20.101562 C 12 18.609375 11.277344 17.398438 10.199219 17.398438 Z M 10.199219 17.398438 "/>
</g>
</svg>
