<?xml version="1.0" encoding="UTF-8"?>
<svg xmlns="http://www.w3.org/2000/svg" xmlns:xlink="http://www.w3.org/1999/xlink" viewBox="0 0 30 30" width="30px" height="30px">
<g id="surface21765573">
<path style=" stroke:none;fill-rule:nonzero;fill:rgb(40.000001%,40.000001%,40.000001%);fill-opacity:1;" d="M 3 2.398438 C 2.667969 2.398438 2.398438 2.667969 2.398438 3 L 2.398438 27 C 2.398438 27.332031 2.667969 27.601562 3 27.601562 L 14.398438 27.601562 C 14.730469 27.601562 15 27.332031 15 27 L 15 3 C 15 2.667969 14.730469 2.398438 14.398438 2.398438 Z M 15 8.699219 C 15 12.175781 17.824219 15 21.300781 15 C 24.773438 15 27.601562 12.175781 27.601562 8.699219 C 27.601562 5.226562 24.773438 2.398438 21.300781 2.398438 C 17.824219 2.398438 15 5.226562 15 8.699219 Z M 21.300781 15 C 17.824219 15 15 17.824219 15 21.300781 C 15 24.773438 17.824219 27.601562 21.300781 27.601562 C 24.773438 27.601562 27.601562 24.773438 27.601562 21.300781 C 27.601562 17.824219 24.773438 15 21.300781 15 Z M 21.300781 15 "/>
</g>
</svg>
